<svg width="102" height="94" viewBox="0 0 102 94" fill="none" xmlns="http://www.w3.org/2000/svg">
<g clip-path="url(#clip0_1_65)">
<rect width="102" height="94" rx="47" fill="white"/>
<path d="M50.9963 0C36.9723 0 25.4981 13.1402 25.4981 29.3308C25.4981 45.5214 36.9723 58.6615 50.9963 58.6615C65.0203 58.6615 76.4944 45.5214 76.4944 29.3308C76.4944 13.1402 65.0203 0 50.9963 0ZM24.3507 58.6615C10.8367 59.2481 0 69.4553 0 82.1261V93.8585H101.993V82.1261C101.993 69.4553 91.2834 59.2481 77.6419 58.6615C70.7574 65.8182 61.323 70.3938 50.9963 70.3938C40.6695 70.3938 31.2352 65.8182 24.3507 58.6615Z" fill="black"/>
</g>
<rect x="1" y="1" width="100" height="92" rx="46" stroke="black" stroke-width="2"/>
<defs>
<clipPath id="clip0_1_65">
<rect width="102" height="94" rx="47" fill="white"/>
</clipPath>
</defs>
</svg>
